<?xml version="1.0" encoding="UTF-8"?>
<svg xmlns="http://www.w3.org/2000/svg" xmlns:xlink="http://www.w3.org/1999/xlink" width="57px" height="41px" viewBox="0 0 57 41" version="1.1">
<defs>
<linearGradient id="linear0" gradientUnits="userSpaceOnUse" x1="68.841797" y1="28.893801" x2="10.0538" y2="74.823997" gradientTransform="matrix(0.269731,0,0,0.270955,12.007124,1.963144)">
<stop offset="0" style="stop-color:rgb(100%,86.666667%,0%);stop-opacity:1;"/>
<stop offset="0.9" style="stop-color:rgb(83.137255%,62.352941%,0%);stop-opacity:1;"/>
<stop offset="1" style="stop-color:rgb(100%,86.666667%,0%);stop-opacity:1;"/>
</linearGradient>
<linearGradient id="linear1" gradientUnits="userSpaceOnUse" x1="70.016098" y1="75.860298" x2="27.217699" y2="75.860298" gradientTransform="matrix(0.269731,0,0,0.270955,12.007124,1.963144)">
<stop offset="0" style="stop-color:rgb(83.137255%,62.352941%,0%);stop-opacity:1;"/>
<stop offset="1" style="stop-color:rgb(67.058824%,34.509804%,3.137255%);stop-opacity:1;"/>
</linearGradient>
<linearGradient id="linear2" gradientUnits="userSpaceOnUse" x1="55.927799" y1="62.2183" x2="114.8193" y2="16.372499" gradientTransform="matrix(0.269731,0,0,0.270955,12.007124,1.963144)">
<stop offset="0" style="stop-color:rgb(0%,32.54902%,49.411765%);stop-opacity:1;"/>
<stop offset="0.9" style="stop-color:rgb(9.411765%,66.666667%,88.627451%);stop-opacity:1;"/>
<stop offset="1" style="stop-color:rgb(6.27451%,48.235294%,75.294118%);stop-opacity:1;"/>
</linearGradient>
<linearGradient id="linear3" gradientUnits="userSpaceOnUse" x1="91.803703" y1="-4.211" x2="66.793602" y2="15.329" gradientTransform="matrix(0.269731,0,0,0.270955,12.007124,1.963144)">
<stop offset="0" style="stop-color:rgb(0%,14.509804%,25.882353%);stop-opacity:1;"/>
<stop offset="1" style="stop-color:rgb(0%,25.490196%,41.176471%);stop-opacity:1;"/>
</linearGradient>
</defs>
<g id="surface1">
<path style=" stroke:none;fill-rule:evenodd;fill:url(#linear0);" d="M 20.558594 26.675781 L 19.480469 26.675781 C 18.617188 26.675781 17.832031 26.269531 17.320312 25.617188 L 12.195312 19.007812 C 12.089844 18.84375 12.007812 18.652344 12.007812 18.4375 C 12.007812 18.21875 12.089844 18.03125 12.195312 17.867188 L 17.347656 11.257812 C 17.859375 10.605469 18.617188 10.199219 19.503906 10.199219 L 30.886719 10.199219 L 24.414062 18.355469 L 19.695312 24.34375 Z M 20.558594 26.675781 "/>
<path style=" stroke:none;fill-rule:evenodd;fill:url(#linear1);" d="M 24.496094 18.4375 L 24.441406 18.355469 L 19.695312 24.34375 C 19.503906 24.589844 19.34375 24.914062 19.34375 25.453125 C 19.34375 25.996094 19.855469 26.675781 20.882812 26.675781 L 30.886719 26.675781 Z M 24.496094 18.4375 "/>
<path style=" stroke:none;fill-rule:evenodd;fill:url(#linear2);" d="M 37.980469 4.292969 L 37.117188 1.964844 L 38.199219 1.964844 C 39.0625 1.964844 39.84375 2.371094 40.355469 3.019531 L 45.507812 9.632812 C 45.617188 9.792969 45.695312 9.984375 45.695312 10.199219 C 45.695312 10.417969 45.617188 10.605469 45.507812 10.769531 L 40.328125 17.378906 C 39.816406 18.03125 39.0625 18.4375 38.171875 18.4375 L 26.789062 18.4375 L 33.261719 10.28125 Z M 37.980469 4.292969 "/>
<path style=" stroke:none;fill-rule:evenodd;fill:url(#linear3);" d="M 33.207031 10.199219 L 33.261719 10.28125 L 37.980469 4.292969 C 38.171875 4.050781 38.332031 3.722656 38.332031 3.183594 C 38.332031 2.640625 37.820312 1.964844 36.796875 1.964844 L 26.789062 1.964844 Z M 33.207031 10.199219 "/>
<path style=" stroke:none;fill-rule:nonzero;fill:rgb(4.313725%,73.333333%,93.72549%);fill-opacity:1;" d="M 38.253906 4.183594 C 38.441406 3.941406 38.546875 3.671875 38.546875 3.34375 C 38.546875 2.585938 37.929688 1.964844 37.171875 1.964844 L 36.824219 1.964844 C 37.578125 1.964844 38.171875 2.585938 38.171875 3.34375 C 38.171875 3.671875 38.0625 3.96875 37.875 4.183594 L 33.207031 10.199219 L 26.816406 18.410156 Z M 38.253906 4.183594 "/>
<path style=" stroke:none;fill-rule:nonzero;fill:rgb(100%,83.529412%,0%);fill-opacity:1;" d="M 19.453125 24.453125 C 19.261719 24.695312 19.15625 24.96875 19.15625 25.292969 C 19.15625 26.050781 19.777344 26.675781 20.53125 26.675781 L 20.882812 26.675781 C 20.125 26.675781 19.503906 26.050781 19.503906 25.292969 C 19.503906 24.96875 19.613281 24.667969 19.800781 24.453125 L 24.496094 18.4375 L 30.886719 10.226562 Z M 19.453125 24.453125 "/>
<path style=" stroke:none;fill-rule:nonzero;fill:rgb(2.352941%,25.490196%,41.568627%);fill-opacity:1;" d="M 27.507812 31.664062 C 27.074219 31.664062 26.734375 31.71875 26.371094 31.828125 C 25.792969 32.007812 25.363281 32.316406 25.039062 32.75 C 24.476562 33.476562 24.496094 34.34375 24.496094 34.34375 L 24.496094 40.394531 L 26.101562 40.394531 C 26.210938 40.394531 26.28125 40.304688 26.28125 40.214844 L 26.28125 34.472656 C 26.28125 34.363281 26.300781 33.964844 26.515625 33.765625 C 26.695312 33.601562 26.929688 33.53125 27.164062 33.492188 C 27.417969 33.457031 27.671875 33.476562 27.796875 33.492188 C 27.796875 33.492188 27.816406 33.492188 27.832031 33.492188 C 27.960938 33.492188 28.050781 33.421875 28.101562 33.332031 L 28.933594 31.898438 C 28.5 31.734375 28.03125 31.644531 27.507812 31.664062 "/>
<path style=" stroke:none;fill-rule:nonzero;fill:rgb(2.352941%,25.490196%,41.568627%);fill-opacity:1;" d="M 22.78125 31.664062 C 22.351562 31.664062 21.988281 31.71875 21.648438 31.828125 C 21.070312 32.007812 20.636719 32.316406 20.3125 32.75 C 19.753906 33.476562 19.769531 34.34375 19.769531 34.34375 L 19.769531 40.394531 L 21.375 40.394531 C 21.484375 40.394531 21.554688 40.304688 21.554688 40.214844 L 21.554688 34.472656 C 21.554688 34.363281 21.574219 33.964844 21.789062 33.765625 C 21.972656 33.601562 22.207031 33.53125 22.441406 33.492188 C 22.691406 33.457031 22.945312 33.476562 23.070312 33.492188 C 23.070312 33.492188 23.089844 33.492188 23.109375 33.492188 C 23.214844 33.492188 23.324219 33.421875 23.378906 33.332031 L 24.226562 31.882812 C 23.757812 31.734375 23.304688 31.644531 22.78125 31.664062 "/>
<path style=" stroke:none;fill-rule:nonzero;fill:rgb(2.352941%,25.490196%,41.568627%);fill-opacity:1;" d="M 8.75 38.167969 C 8.699219 38.09375 8.589844 38.042969 8.480469 38.042969 C 8.425781 38.042969 8.355469 38.058594 8.320312 38.09375 C 7.777344 38.421875 7.128906 38.621094 6.441406 38.621094 C 4.421875 38.621094 2.78125 36.972656 2.78125 34.925781 C 2.78125 32.894531 4.421875 31.246094 6.441406 31.246094 C 7.128906 31.246094 7.777344 31.429688 8.320312 31.773438 C 8.371094 31.808594 8.425781 31.828125 8.5 31.828125 C 8.605469 31.828125 8.699219 31.773438 8.769531 31.699219 L 9.6875 30.503906 C 8.789062 29.832031 7.667969 29.433594 6.441406 29.433594 C 3.414062 29.433594 0.960938 31.898438 0.960938 34.941406 C 0.960938 37.988281 3.414062 40.449219 6.441406 40.449219 C 7.652344 40.449219 8.769531 40.050781 9.6875 39.382812 Z M 8.75 38.167969 "/>
<path style=" stroke:none;fill-rule:nonzero;fill:rgb(2.352941%,25.490196%,41.568627%);fill-opacity:1;" d="M 33.117188 33.277344 C 34.308594 33.277344 35.316406 34.054688 35.679688 35.125 L 30.574219 35.125 C 30.933594 34.054688 31.945312 33.277344 33.117188 33.277344 M 33.117188 31.535156 C 30.683594 31.535156 28.699219 33.53125 28.699219 35.976562 C 28.699219 38.402344 30.683594 40.394531 33.117188 40.414062 C 33.152344 40.414062 33.242188 40.414062 33.242188 40.414062 C 34.199219 40.414062 34.976562 40.289062 36.003906 39.617188 L 36.164062 39.507812 C 36.164062 39.507812 35.261719 38.332031 35.246094 38.3125 C 35.191406 38.242188 35.082031 38.1875 34.992188 38.1875 C 34.9375 38.1875 34.882812 38.203125 34.832031 38.222656 C 34.597656 38.347656 33.894531 38.65625 33.117188 38.65625 C 31.945312 38.65625 30.953125 37.914062 30.574219 36.863281 L 37.335938 36.863281 C 37.445312 36.863281 37.519531 36.773438 37.519531 36.683594 L 37.535156 36.175781 C 37.535156 36.101562 37.535156 36.046875 37.535156 35.976562 C 37.554688 33.53125 35.570312 31.535156 33.117188 31.535156 Z M 33.117188 31.535156 "/>
<path style=" stroke:none;fill-rule:nonzero;fill:rgb(2.352941%,25.490196%,41.568627%);fill-opacity:1;" d="M 38.761719 40.433594 C 38.652344 40.433594 38.582031 40.359375 38.582031 40.25 L 38.582031 32.007812 C 38.582031 31.917969 38.652344 31.828125 38.761719 31.828125 L 40.1875 31.828125 C 40.296875 31.828125 40.367188 31.917969 40.367188 32.007812 L 40.367188 40.25 C 40.367188 40.359375 40.277344 40.433594 40.1875 40.433594 Z M 38.761719 40.433594 "/>
<path style=" stroke:none;fill-rule:nonzero;fill:rgb(2.352941%,25.490196%,41.568627%);fill-opacity:1;" d="M 14.433594 33.238281 C 12.953125 33.238281 11.761719 34.4375 11.761719 35.921875 C 11.761719 37.40625 12.953125 38.601562 14.433594 38.601562 C 15.910156 38.601562 17.101562 37.40625 17.101562 35.921875 C 17.101562 34.4375 15.910156 33.238281 14.433594 33.238281 M 14.433594 40.433594 C 11.960938 40.433594 9.960938 38.421875 9.960938 35.9375 C 9.960938 33.457031 11.960938 31.445312 14.433594 31.445312 C 16.902344 31.445312 18.90625 33.457031 18.90625 35.9375 C 18.90625 38.402344 16.902344 40.433594 14.433594 40.433594 Z M 14.433594 40.433594 "/>
<path style=" stroke:none;fill-rule:nonzero;fill:rgb(2.352941%,25.490196%,41.568627%);fill-opacity:1;" d="M 45.707031 33.3125 C 44.246094 33.3125 43.054688 34.507812 43.054688 35.976562 C 43.054688 37.441406 44.246094 38.621094 45.707031 38.621094 C 47.167969 38.621094 48.355469 37.425781 48.355469 35.976562 C 48.355469 34.507812 47.167969 33.3125 45.707031 33.3125 M 45.707031 40.414062 C 43.253906 40.414062 41.269531 38.421875 41.269531 35.957031 C 41.269531 33.492188 43.253906 31.5 45.707031 31.5 C 48.160156 31.5 50.144531 33.492188 50.144531 35.957031 C 50.144531 38.421875 48.160156 40.414062 45.707031 40.414062 Z M 45.707031 40.414062 "/>
<path style=" stroke:none;fill-rule:nonzero;fill:rgb(2.352941%,25.490196%,41.568627%);fill-opacity:1;" d="M 55.175781 35.289062 C 54.867188 35.140625 54.472656 35.050781 54.039062 34.941406 C 53.40625 34.78125 52.8125 34.742188 52.59375 34.398438 C 52.398438 34.074219 52.503906 33.710938 52.777344 33.511719 C 53.40625 33.078125 54.253906 33.257812 54.722656 33.476562 C 54.8125 33.511719 55.15625 33.710938 55.15625 33.710938 C 55.210938 33.746094 55.265625 33.765625 55.320312 33.765625 C 55.425781 33.765625 55.515625 33.710938 55.589844 33.621094 C 55.589844 33.621094 56.492188 32.460938 56.492188 32.460938 L 56.347656 32.335938 C 56.257812 32.261719 56.128906 32.1875 56.003906 32.117188 C 55.734375 31.972656 54.921875 31.5 53.75 31.5 C 53.714844 31.5 53.675781 31.5 53.640625 31.5 C 51.0625 31.554688 50.703125 33.386719 50.703125 34.039062 C 50.703125 35.015625 51.207031 35.722656 51.964844 36.15625 C 52.578125 36.5 53.714844 36.699219 54.289062 36.882812 C 54.597656 36.972656 54.8125 37.191406 54.902344 37.390625 C 54.941406 37.480469 54.957031 37.570312 54.957031 37.679688 C 54.976562 38.023438 54.796875 38.402344 54.289062 38.566406 C 53.730469 38.730469 52.867188 38.65625 52.074219 38.042969 C 52.054688 38.023438 51.964844 37.949219 51.929688 37.933594 C 51.890625 37.914062 51.855469 37.914062 51.800781 37.914062 C 51.695312 37.914062 51.605469 37.96875 51.53125 38.058594 C 51.511719 38.078125 50.648438 39.199219 50.648438 39.199219 C 50.648438 39.199219 50.953125 39.453125 51.0625 39.527344 C 51.566406 39.90625 52.46875 40.414062 53.640625 40.414062 L 53.675781 40.414062 C 56.167969 40.414062 56.742188 38.640625 56.742188 37.660156 C 56.742188 36.683594 56.148438 35.722656 55.175781 35.289062 "/>
</g>
</svg>
